<svg width="140" height="53" viewBox="0 0 140 53" fill="none" xmlns="http://www.w3.org/2000/svg">
<g clip-path="url(#clip0_33_839)">
<path d="M1.45862 8.89107H6.44291C8.14563 8.89107 9.47453 9.10217 10.4311 9.52364C11.3876 9.94511 12.0605 10.6092 12.4497 11.5174C12.8543 12.4087 13.0574 13.6086 13.0574 15.1163V22.2644C13.0574 23.7882 12.8543 25.0035 12.449 25.9117C12.0605 26.8191 11.3876 27.492 10.4311 27.9296C9.49066 28.3672 8.17789 28.5864 6.49202 28.5864H1.45862V8.89107ZM6.49202 25.5716C7.12459 25.5716 7.58637 25.4822 7.8781 25.3041C8.18595 25.1091 8.38092 24.8423 8.46155 24.5014C8.54218 24.1445 8.58323 23.6263 8.58323 22.9453V14.3621C8.58323 13.7295 8.53485 13.2516 8.43663 12.9276C8.40207 12.7663 8.33178 12.6148 8.23093 12.4843C8.13008 12.3538 8.00125 12.2475 7.85391 12.1734C7.56218 12.0121 7.09967 11.9308 6.46783 11.9308H5.81108V25.5716H6.49275H6.49202ZM16.9224 8.89107H25.7717V11.8575H21.2734V16.745H24.7023V19.7598H21.2734V25.6442H25.8201V28.5864H16.9217V8.89107H16.9224ZM28.0887 8.89107H31.8093L33.9247 22.2644L35.8942 8.89107H39.8333L36.2343 28.5864H31.6385L28.0887 8.89107ZM48.4312 28.8781C46.2909 28.8781 44.7677 28.3188 43.8596 27.2003C42.9683 26.0656 42.5226 24.4369 42.5226 22.3128V15.2131C42.5226 13.0412 42.9683 11.4037 43.8596 10.3021C44.7509 9.1828 46.2747 8.62354 48.4312 8.62354C50.4894 8.62354 51.9488 9.1183 52.8071 10.1071C53.6669 11.0959 54.0964 12.4981 54.0964 14.3137V16.0157H49.8414V14.0462C49.8414 13.2839 49.7608 12.7004 49.5981 12.2951C49.4361 11.8897 49.0469 11.6867 48.4312 11.6867C47.8155 11.6867 47.4094 11.9066 47.2152 12.3442C47.0209 12.7656 46.9234 13.3571 46.9234 14.1187V23.3829C46.9234 24.1613 47.0209 24.7609 47.2152 25.1824C47.4255 25.5877 47.8309 25.7908 48.4312 25.7908C49.0308 25.7908 49.4119 25.5877 49.5739 25.1824C49.752 24.7609 49.8414 24.1613 49.8414 23.3829V21.3159H54.0964V23.0179C54.0964 24.8665 53.6669 26.309 52.8078 27.3462C51.9488 28.3672 50.4894 28.8781 48.4312 28.8781ZM63.3474 28.8781C61.224 28.8781 59.7081 28.3357 58.8007 27.2487C57.8933 26.147 57.4388 24.5256 57.4388 22.3861V15.0672C57.4388 12.9269 57.8933 11.3224 58.8007 10.253C59.7089 9.16668 61.224 8.62354 63.3474 8.62354C65.4877 8.62354 67.0109 9.16668 67.919 10.253C68.8426 11.3392 69.3044 12.943 69.3044 15.0672V22.3861C69.3044 24.5264 68.8426 26.1463 67.919 27.2487C67.0109 28.335 65.4877 28.8781 63.3474 28.8781ZM63.3474 25.79C63.9631 25.79 64.3692 25.5877 64.5634 25.1817C64.7577 24.7609 64.8552 24.1936 64.8552 23.4804V13.997C64.8552 13.2677 64.7577 12.7004 64.5634 12.2951C64.3692 11.8897 63.9639 11.6867 63.3474 11.6867C62.764 11.6867 62.3747 11.8978 62.1805 12.3192C61.9863 12.7246 61.8888 13.2839 61.8888 13.9978V23.4804C61.8888 24.1936 61.9782 24.7609 62.1563 25.1824C62.3344 25.5877 62.7317 25.7908 63.3474 25.7908V25.79ZM73.1694 8.89107H76.2333L80.2698 18.3737V8.89107H83.868V28.5864H80.9258L76.89 18.3737V28.5864H73.1694V8.89107ZM88.0153 8.89107H91.0784L95.115 18.3737V8.89107H98.7139V28.5864H95.7717L91.7352 18.3737V28.5864H88.0153V8.89107ZM102.86 8.89107H111.711V11.8575H107.213V16.745H110.641V19.7598H107.213V25.6442H111.76V28.5864H102.86V8.89107ZM120.593 28.8781C118.453 28.8781 116.929 28.3188 116.021 27.2003C115.13 26.0656 114.684 24.4369 114.684 22.3128V15.2131C114.684 13.0412 115.13 11.4037 116.021 10.3021C116.913 9.1828 118.437 8.62354 120.593 8.62354C122.652 8.62354 124.11 9.1183 124.969 10.1071C125.828 11.0959 126.258 12.4981 126.258 14.3137V16.0157H122.003V14.0462C122.003 13.2839 121.922 12.7004 121.76 12.2951C121.598 11.8897 121.208 11.6867 120.593 11.6867C119.977 11.6867 119.572 11.9066 119.377 12.3442C119.182 12.7656 119.085 13.3571 119.085 14.1187V23.3829C119.085 24.1613 119.182 24.7609 119.377 25.1824C119.588 25.5877 119.993 25.7908 120.593 25.7908C121.192 25.7908 121.573 25.5877 121.735 25.1824C121.914 24.7609 122.003 24.1613 122.003 23.3829V21.3159H126.258V23.0179C126.258 24.8665 125.828 26.309 124.969 27.3462C124.11 28.3672 122.652 28.8781 120.593 28.8781ZM131.643 12.125H128.677V8.89107H138.962V12.125H136.02V28.5864H131.643V12.125Z" fill="#132170"/>
<path fill-rule="evenodd" clip-rule="evenodd" d="M139.356 34.3455H101.971V52.5821H139.356V34.3455ZM112.653 37.465H109.677L107.445 49.2822H109.91L110.319 46.7871H112.055L112.449 49.2822H114.856L112.653 37.465ZM111.18 40.6161L111.807 45.2266H110.552L111.18 40.6161ZM119.74 37.4643H116.939L116.735 49.2822H118.617L118.792 41.3601L120.25 49.2822H121.9L123.27 41.4188L123.49 49.2822H125.343L125.138 37.465H122.439L121.038 44.336L119.74 37.465V37.4643ZM128.222 48.5668C128.777 49.1605 129.618 49.4567 130.746 49.4567C131.359 49.4567 131.898 49.3255 132.365 49.063C132.817 48.8153 133.191 48.4465 133.445 47.998C133.709 47.5362 133.844 47.0125 133.839 46.4807C133.839 45.7221 133.678 45.0661 133.358 44.5112C133.037 43.9571 132.584 43.4315 132.001 42.9353L131.023 42.0748C130.624 41.7251 130.333 41.4136 130.148 41.141C129.973 40.869 129.885 40.5333 129.885 40.1346C129.885 39.9007 129.943 39.6918 130.06 39.5071C130.114 39.4163 130.191 39.3414 130.283 39.2902C130.376 39.2389 130.48 39.2131 130.586 39.2154C130.896 39.2154 131.096 39.3517 131.184 39.6237C131.281 39.8868 131.339 40.3244 131.359 40.9372L133.605 40.6594C133.576 39.7263 133.358 38.9332 132.949 38.2816C132.55 37.63 131.791 37.3045 130.673 37.3045C129.642 37.3045 128.83 37.5721 128.236 38.1064C127.653 38.6415 127.361 39.4052 127.361 40.397C127.361 41.0589 127.497 41.6321 127.769 42.1188C128.052 42.5952 128.446 43.0474 128.952 43.4748L129.973 44.3654C130.42 44.7443 130.746 45.0998 130.95 45.4304C131.164 45.761 131.271 46.1553 131.271 46.6119C131.271 47.1859 131.052 47.4725 130.615 47.4725C130.274 47.4725 130.017 47.3127 129.842 46.9916C129.676 46.6603 129.589 46.1208 129.578 45.3717L127.346 45.7074C127.385 47.0107 127.677 47.9643 128.222 48.5668Z" fill="#132170"/>
</g>
<defs>
<clipPath id="clip0_33_839">
<rect width="140" height="52.7749" fill="white"/>
</clipPath>
</defs>
</svg>
