<svg width="104" height="63" viewBox="0 0 104 63" fill="none" xmlns="http://www.w3.org/2000/svg">
<path fill-rule="evenodd" clip-rule="evenodd" d="M84.7284 3.69402L78 1.00265C78.567 4.40443 77.8481 7.48477 77.1193 10.6082C76.5626 12.9937 76 15.4044 76 18.0026C76 24.0026 77.5 30.0026 87.4999 30.0026H87.8079L78.2106 16.5664L77.8542 16.0675L78.152 15.5316L84.7284 3.69402ZM90.192 30.0026H90.4999C100.5 30.0026 102 24.0026 102 18.0026C102 15.4044 101.437 12.9937 100.881 10.6082C100.152 7.48477 99.433 4.40443 100 1.00265L93.2715 3.69406L99.8479 15.5316L100.146 16.0675L99.7893 16.5664L90.192 30.0026ZM88.9999 20.8714L80.3035 15.6536L88.9999 0L97.6964 15.6536L88.9999 20.8714ZM89.499 22.8344L95.4999 19.2339L88.9999 28.3338L82.5 19.2339L88.5009 22.8344L88.9999 23.1339L89.499 22.8344Z" fill="#EDAA28"/>
<path d="M90 31V30H88V31H90ZM88 62C88 62.5523 88.4477 63 89 63C89.5523 63 90 62.5523 90 62H88ZM88 31V62H90V31H88Z" fill="#008000"/>
<path d="M90 43.5474C89 39.0474 96.1677 36.6249 104 37.0474C98.5 47.0474 90.826 47.2646 90 43.5474Z" fill="#008000"/>
<path d="M88 43.5474C89 39.0474 81.8323 36.6249 74 37.0474C79.5 47.0474 87.174 47.2646 88 43.5474Z" fill="#008000"/>
<path fill-rule="evenodd" clip-rule="evenodd" d="M47.7284 3.69402L41 1.00265C41.567 4.40443 40.8481 7.48477 40.1193 10.6082C39.5626 12.9937 39 15.4044 39 18.0026C39 24.0026 40.5 30.0026 50.4999 30.0026H50.8079L41.2106 16.5664L40.8542 16.0675L41.152 15.5316L47.7284 3.69402ZM53.192 30.0026H53.4999C63.5 30.0026 65 24.0026 65 18.0026C65 15.4044 64.4374 12.9937 63.8807 10.6082C63.1519 7.48477 62.433 4.40443 63 1.00265L56.2715 3.69406L62.8479 15.5316L63.1456 16.0675L62.7893 16.5664L53.192 30.0026ZM51.9999 20.8714L43.3035 15.6536L51.9999 0L60.6964 15.6536L51.9999 20.8714ZM52.499 22.8344L58.4999 19.2339L51.9999 28.3338L45.5 19.2339L51.5009 22.8344L51.9999 23.1339L52.499 22.8344Z" fill="#EDAA28"/>
<path d="M53 31V30H51V31H53ZM51 62C51 62.5523 51.4477 63 52 63C52.5523 63 53 62.5523 53 62H51ZM51 31V62H53V31H51Z" fill="#008000"/>
<path d="M53 43.5474C52 39.0474 59.1677 36.6249 67 37.0474C61.5 47.0474 53.826 47.2646 53 43.5474Z" fill="#008000"/>
<path d="M51 43.5474C52 39.0474 44.8323 36.6249 37 37.0474C42.5 47.0474 50.174 47.2646 51 43.5474Z" fill="#008000"/>
<path fill-rule="evenodd" clip-rule="evenodd" d="M10.7284 3.69402L4 1.00265C4.56696 4.40443 3.84814 7.48477 3.11926 10.6082C2.56256 12.9937 2 15.4044 2 18.0026C2 24.0026 3.49995 30.0026 13.4999 30.0026H13.8079L4.21061 16.5664L3.85425 16.0675L4.152 15.5316L10.7284 3.69402ZM16.192 30.0026H16.4999C26.5 30.0026 28 24.0026 28 18.0026C28 15.4044 27.4374 12.9937 26.8807 10.6082C26.1519 7.48477 25.433 4.40443 26 1.00265L19.2715 3.69406L25.8479 15.5316L26.1456 16.0675L25.7893 16.5664L16.192 30.0026ZM14.9999 20.8714L6.3035 15.6536L14.9999 0L23.6964 15.6536L14.9999 20.8714ZM15.499 22.8344L21.4999 19.2339L14.9999 28.3338L8.5 19.2339L14.5009 22.8344L14.9999 23.1339L15.499 22.8344Z" fill="#EDAA28"/>
<path d="M16 31V30H14V31H16ZM14 62C14 62.5523 14.4477 63 15 63C15.5523 63 16 62.5523 16 62H14ZM14 31V62H16V31H14Z" fill="#008000"/>
<path d="M16 43.5474C15 39.0474 22.1677 36.6249 30 37.0474C24.5 47.0474 16.826 47.2646 16 43.5474Z" fill="#008000"/>
<path d="M14 43.5474C15 39.0474 7.83227 36.6249 3.8147e-06 37.0474C5.5 47.0474 13.174 47.2646 14 43.5474Z" fill="#008000"/>
</svg>
