<svg width="619" height="234" viewBox="0 0 619 234" fill="none" xmlns="http://www.w3.org/2000/svg">
<path d="M40.45 189.13C40.45 181.63 52.45 153.63 52.45 133.63M54.45 189.13C54.45 183.63 61.45 150.13 61.45 133.63" stroke="#EDAA28" stroke-width="2"/>
<path d="M92.45 189.13C92.45 181.63 80.45 153.63 80.45 133.63M78.45 189.13C78.45 183.63 71.45 150.13 71.45 133.63" stroke="#EDAA28" stroke-width="2"/>
<path d="M83.95 121.13C83.95 113.63 77.95 93.1305 77.95 73.1305M73.45 121.13C73.45 115.63 68.95 89.6305 68.95 73.1305" stroke="#EDAA28" stroke-width="2"/>
<path d="M48.45 120.63C48.45 113.13 54.45 92.6305 54.45 72.6305M58.95 120.63C58.95 115.13 63.45 89.1305 63.45 72.6305" stroke="#EDAA28" stroke-width="2"/>
<path d="M30.4463 180.13H102.446" stroke="#EDAA28"/>
<path d="M34.4463 170.63H98.4463" stroke="#EDAA28"/>
<path d="M37.4463 161.63H95.4463" stroke="#EDAA28"/>
<path d="M38.4463 153.13H94.4463" stroke="#EDAA28"/>
<path d="M40.4463 143.63H92.4463" stroke="#EDAA28"/>
<path d="M42.4463 111.13L90.4463 111.13" stroke="#EDAA28"/>
<path d="M44.4463 102.13L88.4463 102.13" stroke="#EDAA28"/>
<path d="M45.4463 94.13L87.4463 94.13" stroke="#EDAA28"/>
<path d="M45.45 84.6305H87.45" stroke="#EDAA28"/>
<path d="M68.1192 132.862L62.7734 121.398" stroke="#EDAA28" stroke-width="2"/>
<path d="M34.4463 189.13L45.9463 200.13H94.4463L98.4463 189.13M28.4463 189.13H104.446C104.446 180.63 95.4463 158.63 92.4463 133.13H40.4463C37.4463 158.63 28.4463 180.63 28.4463 189.13Z" stroke="#132170" stroke-width="3" stroke-linejoin="round"/>
<path fill-rule="evenodd" clip-rule="evenodd" d="M46.4464 71.8804C45.756 71.8804 45.1964 72.44 45.1964 73.1304C45.1963 84.5348 42.2073 110.951 40.2242 120.886C40.1509 121.253 40.2461 121.634 40.4835 121.923C40.7209 122.213 41.0756 122.38 41.45 122.38H43.5454L47.2605 133.526C47.4306 134.036 47.9083 134.38 48.4464 134.38H84.4463C84.9844 134.38 85.4621 134.036 85.6322 133.526L88.4308 125.13H85.7955L83.5454 131.88H49.3473L46.1806 122.38H82.4463V119.88H42.9598C44.8845 109.286 47.4995 85.9569 47.6858 74.3804H85.2034C85.2674 80.2446 85.76 89.1159 86.5773 97.8098C86.8095 100.28 87.0687 102.745 87.3531 105.13H89.8712C89.5771 102.689 89.3078 100.144 89.0663 97.5758C88.1931 88.2875 87.6963 78.829 87.6963 73.1304C87.6963 72.7989 87.5646 72.4809 87.3302 72.2465C87.0958 72.0121 86.7779 71.8804 86.4463 71.8804H46.4464Z" fill="#132170"/>
<path d="M50.45 73.1305L49.2033 73.0402C49.1782 73.3865 49.2983 73.7277 49.5348 73.9819C49.7713 74.2361 50.1028 74.3805 50.45 74.3805V73.1305ZM82.45 73.1305V74.3805C82.7972 74.3805 83.1288 74.2361 83.3652 73.9819C83.6017 73.7277 83.7218 73.3865 83.6968 73.0402L82.45 73.1305ZM50.45 73.1305C51.6967 73.2207 51.6967 73.2211 51.6967 73.2213C51.6967 73.2213 51.6967 73.2215 51.6967 73.2214C51.6967 73.2213 51.6967 73.2209 51.6968 73.2201C51.6969 73.2186 51.6971 73.2158 51.6974 73.2118C51.6981 73.2037 51.6991 73.1905 51.7006 73.1725C51.7036 73.1364 51.7084 73.0808 51.7154 73.007C51.7294 72.8593 51.7521 72.6389 51.7861 72.3561C51.8543 71.7902 51.9677 70.9764 52.1482 69.9977C52.51 68.0349 53.1362 65.4362 54.1909 62.853C56.3245 57.6273 60.0108 52.8805 66.45 52.8805V50.3805C58.4457 50.3805 54.1319 56.3837 51.8764 61.908C50.7366 64.6997 50.0709 67.4761 49.6896 69.5445C49.4984 70.5815 49.3775 71.4474 49.3041 72.0573C49.2673 72.3624 49.2424 72.6038 49.2266 72.7711C49.2187 72.8547 49.213 72.9199 49.2092 72.9651C49.2073 72.9878 49.2059 73.0055 49.205 73.018C49.2045 73.0243 49.2041 73.0293 49.2038 73.033C49.2037 73.0349 49.2036 73.0364 49.2035 73.0376C49.2034 73.0382 49.2034 73.0389 49.2034 73.0392C49.2033 73.0398 49.2033 73.0402 50.45 73.1305ZM66.45 52.8805C72.8893 52.8805 76.5755 57.6273 78.7091 62.853C79.7638 65.4362 80.39 68.0349 80.7519 69.9977C80.9323 70.9764 81.0458 71.7902 81.1139 72.3561C81.1479 72.6389 81.1706 72.8593 81.1846 73.007C81.1916 73.0808 81.1964 73.1364 81.1994 73.1725C81.2009 73.1905 81.202 73.2037 81.2026 73.2118C81.2029 73.2158 81.2031 73.2186 81.2032 73.2201C81.2033 73.2209 81.2033 73.2213 81.2033 73.2214C81.2033 73.2215 81.2033 73.2213 81.2033 73.2213C81.2033 73.2211 81.2033 73.2207 82.45 73.1305C83.6968 73.0402 83.6967 73.0398 83.6967 73.0392C83.6967 73.0389 83.6966 73.0382 83.6966 73.0376C83.6965 73.0364 83.6964 73.0349 83.6962 73.033C83.6959 73.0293 83.6956 73.0243 83.6951 73.018C83.6941 73.0055 83.6927 72.9878 83.6908 72.9651C83.687 72.9199 83.6814 72.8547 83.6734 72.7711C83.6576 72.6038 83.6327 72.3624 83.596 72.0573C83.5226 71.4474 83.4016 70.5815 83.2104 69.5445C82.8291 67.4761 82.1635 64.6997 81.0236 61.908C78.7681 56.3837 74.4544 50.3805 66.45 50.3805V52.8805ZM82.45 71.8805H50.45V74.3805H82.45V71.8805Z" fill="#132170"/>
<path d="M73.1745 9.30573L83.8059 13.1752L70.5609 49.833L59.9295 45.9635L73.1745 9.30573Z" fill="white"/>
<path d="M66.4462 61.1306L70.5609 49.833M70.5609 49.833L83.8059 13.1752L73.1745 9.30573L59.9295 45.9635L70.5609 49.833Z" stroke="#132170" stroke-width="3"/>
<path d="M63.1953 47.0604L76.4403 10.4026L78.4902 11.2405L65.2452 47.8983L67.1821 48.5115L80.4271 11.8536" stroke="#132170"/>
<path d="M14.6214 54.4023L18.4909 43.7709L55.1487 57.0159L51.2792 67.6473L14.6214 54.4023Z" fill="white"/>
<path d="M66.4462 61.1306L55.1487 57.0159M55.1487 57.0159L18.4909 43.7709L14.6214 54.4023L51.2792 67.6473L55.1487 57.0159Z" stroke="#132170" stroke-width="3"/>
<path d="M52.3761 64.3814L15.7183 51.1365L16.5561 49.0866L53.214 62.3316L53.8272 60.3946L17.1693 47.1497" stroke="#132170"/>
<path d="M59.718 112.955L49.0866 109.086L62.3316 72.4281L72.963 76.2977L59.718 112.955Z" fill="white"/>
<path d="M66.4463 61.1306L62.3316 72.4281M62.3316 72.4281L49.0866 109.086L59.718 112.955L72.963 76.2977L62.3316 72.4281Z" stroke="#132170" stroke-width="3"/>
<path d="M69.6972 75.2008L56.4522 111.859L54.4023 111.021L67.6473 74.3629L65.7104 73.7497L52.4654 110.408" stroke="#132170"/>
<path d="M118.271 67.8588L114.402 78.4902L77.7438 65.2452L81.6133 54.6138L118.271 67.8588Z" fill="white"/>
<path d="M66.4463 61.1305L77.7438 65.2452M77.7438 65.2452L114.402 78.4902L118.271 67.8588L81.6133 54.6138L77.7438 65.2452Z" stroke="#132170" stroke-width="3"/>
<path d="M80.5164 57.8797L117.174 71.1246L116.336 73.1745L79.6785 59.9295L79.0654 61.8665L115.723 75.1114" stroke="#132170"/>
<circle cx="66.45" cy="61.1305" r="3" fill="white" stroke="#132170" stroke-width="2"/>
<path d="M101.682 87.7365L87.7286 82.6576L70.3191 130.497L84.2729 135.576L101.682 87.7365Z" fill="white"/>
<path d="M66.4463 141.13L70.3191 130.497M70.3191 130.497L87.7286 82.6576L101.682 87.7365L84.2729 135.576L70.3191 130.497Z" stroke="#132170" stroke-width="3"/>
<path d="M73.4302 131.254L90.6012 84.0767L93.259 85.0441L76.0881 132.221L78.7459 133.188L95.9169 86.0115L98.5747 86.9789L81.4037 134.156" stroke="#132170"/>
<path d="M13.0525 105.894L7.97358 119.848L55.8134 137.257L60.8923 123.304L13.0525 105.894Z" fill="white"/>
<path d="M66.4463 141.13L55.8134 137.257M55.8134 137.257L7.97358 119.848L13.0525 105.894L60.8923 123.304L55.8134 137.257Z" stroke="#132170" stroke-width="3"/>
<path d="M56.5695 134.146L9.39268 116.975L10.3601 114.318L57.5369 131.488L58.5043 128.831L11.3274 111.66L12.2948 109.002L59.4717 126.173" stroke="#132170"/>
<path d="M31.2102 194.524L45.164 199.603L62.5734 151.763L48.6196 146.684L31.2102 194.524Z" fill="white"/>
<path d="M66.4463 141.13L62.5734 151.763M62.5734 151.763L45.164 199.603L31.2102 194.524L48.6196 146.684L62.5734 151.763Z" stroke="#132170" stroke-width="3"/>
<path d="M59.4624 151.007L42.2914 198.184L39.6335 197.216L56.8045 150.04L54.1467 149.072L36.9757 196.249L34.3178 195.282L51.4888 148.105" stroke="#132170"/>
<path d="M119.84 176.367L124.919 162.413L77.0792 145.003L72.0003 158.957L119.84 176.367Z" fill="white"/>
<path d="M66.4463 141.13L77.0792 145.003M77.0792 145.003L124.919 162.413L119.84 176.367L72.0003 158.957L77.0792 145.003Z" stroke="#132170" stroke-width="3"/>
<path d="M76.323 148.114L123.5 165.285L122.533 167.943L75.3556 150.772L74.3883 153.43L121.565 170.601L120.598 173.259L73.4209 156.088" stroke="#132170"/>
<circle cx="66.45" cy="140.63" r="3" fill="white" stroke="#132170" stroke-width="2"/>
<path d="M58.4463 188.63L66.4463 200.13L74.4463 188.63" stroke="#132170" stroke-width="2.5" stroke-linejoin="round"/>
<path d="M58.4463 188.13L66.4463 192.63L74.4463 188.13L66.4463 174.63L58.4463 188.13Z" fill="white" stroke="#132170" stroke-width="2.5" stroke-linejoin="round"/>
<path d="M156.08 116.12C159.493 116.067 163.04 115.693 166.72 115C170.453 114.307 173.627 113.507 176.24 112.6C176.773 112.92 177.173 113.533 177.44 114.44C177.76 115.293 177.92 116.2 177.92 117.16C177.92 118.227 177.733 119.133 177.36 119.88C176.987 120.627 176.453 121 175.76 121H152.24C150.747 121 149.52 120.6 148.56 119.8C147.653 118.947 147.2 117.8 147.2 116.36L147.12 75.88C147.12 71.8267 146.693 68.6533 145.84 66.36C146.373 65.88 147.067 65.4533 147.92 65.08C148.827 64.6533 149.84 64.44 150.96 64.44C152.453 64.44 153.653 64.8667 154.56 65.72C155.52 66.52 156 67.64 156 69.08L156.08 116.12ZM225.611 115.48C226.251 117.453 227.025 118.947 227.931 119.96C226.705 121.293 224.971 121.96 222.731 121.96C221.291 121.96 220.091 121.667 219.131 121.08C218.171 120.493 217.558 119.64 217.291 118.52L213.211 104.12H193.931L190.731 115.64C190.411 117.027 190.251 118.093 190.251 118.84C190.251 119.8 190.465 120.547 190.891 121.08C189.345 121.667 187.745 121.96 186.091 121.96C184.385 121.96 183.131 121.667 182.331 121.08C181.531 120.547 181.131 119.64 181.131 118.36C181.131 117.027 181.451 115.4 182.091 113.48L198.251 65.56C200.651 64.6533 203.131 64.2 205.691 64.2C208.465 64.2 210.118 65.2133 210.651 67.24L225.611 115.48ZM211.771 99.16L203.371 69.72L195.291 99.16H211.771ZM255.958 100.44V110.52C255.958 114.52 256.384 117.693 257.238 120.04C256.758 120.52 256.064 120.973 255.158 121.4C254.304 121.827 253.318 122.04 252.198 122.04C250.704 122.04 249.478 121.64 248.518 120.84C247.611 119.987 247.158 118.84 247.158 117.4L247.078 100.44C246.811 100.067 246.544 99.64 246.278 99.16C246.011 98.68 245.824 98.3333 245.718 98.12L232.518 72.04C231.611 70.1733 230.464 68.6 229.078 67.32C229.664 66.68 230.518 66.0667 231.638 65.48C232.811 64.84 234.064 64.52 235.398 64.52C236.998 64.52 238.224 64.92 239.078 65.72C239.984 66.52 240.811 67.7467 241.558 69.4L253.158 94.44L263.958 71.08C264.544 69.9067 264.838 68.84 264.838 67.88C264.838 67.0267 264.544 66.2 263.958 65.4C265.504 64.8133 267.158 64.52 268.918 64.52C270.251 64.52 271.264 64.8933 271.958 65.64C272.651 66.3867 273.024 67.32 273.078 68.44C273.078 69.8267 272.384 71.6667 270.998 73.96L255.958 100.44ZM312.769 113.08C313.303 113.4 313.703 113.96 313.969 114.76C314.289 115.56 314.449 116.44 314.449 117.4C314.449 118.413 314.263 119.267 313.889 119.96C313.516 120.653 312.983 121 312.289 121H286.849C285.356 121 284.129 120.6 283.169 119.8C282.263 118.947 281.809 117.8 281.809 116.36L281.729 76.92C281.729 72.9733 281.303 69.88 280.449 67.64C281.463 66.7333 282.503 66.1467 283.569 65.88C284.689 65.56 286.263 65.4 288.289 65.4H311.969C312.929 65.4 313.409 66.2 313.409 67.8C313.409 68.8667 313.169 69.96 312.689 71.08C312.263 72.1467 311.703 72.84 311.009 73.16C304.236 71.08 297.436 69.96 290.609 69.8V89.56H308.849C309.063 90.2 309.169 90.9733 309.169 91.88C309.169 92.52 309.063 93.3733 308.849 94.44H290.689V116.6C294.156 116.547 297.996 116.173 302.209 115.48C306.423 114.733 309.943 113.933 312.769 113.08ZM365.801 114.28C366.228 115.187 366.441 116.04 366.441 116.84C366.441 118.493 365.801 119.773 364.521 120.68C363.295 121.533 362.015 121.96 360.681 121.96C358.868 121.96 357.375 121.587 356.201 120.84C355.081 120.04 354.121 118.973 353.321 117.64C352.521 116.253 351.641 114.333 350.681 111.88L347.721 104.2C347.028 102.44 346.361 101.053 345.721 100.04C345.135 99.0267 344.255 98.1733 343.081 97.48C341.961 96.7867 340.441 96.44 338.521 96.44L334.361 96.36V111C334.361 114.893 334.788 117.907 335.641 120.04C334.148 121.373 332.468 122.04 330.601 122.04C329.055 122.04 327.801 121.64 326.841 120.84C325.935 119.987 325.481 118.84 325.481 117.4V75.88C325.481 74.44 325.375 72.84 325.161 71.08C324.948 69.2667 324.601 67.6933 324.121 66.36C327.055 64.9733 331.561 64.28 337.641 64.28C345.375 64.28 351.135 65.4533 354.921 67.8C358.761 70.0933 360.681 73.8533 360.681 79.08C360.681 82.9733 359.561 86.2533 357.321 88.92C355.081 91.5867 352.015 93.4267 348.121 94.44C349.988 94.92 351.508 95.7733 352.681 97C353.855 98.1733 354.948 99.7467 355.961 101.72L359.561 110.12C360.255 111.88 360.921 113.16 361.561 113.96C362.255 114.707 362.975 115.107 363.721 115.16C364.575 115.16 365.268 114.867 365.801 114.28ZM334.361 93C335.268 93.0533 336.788 93.08 338.921 93.08C342.655 92.9733 345.588 91.6933 347.721 89.24C349.908 86.7867 351.001 83.6133 351.001 79.72C351.001 71.6667 346.761 67.64 338.281 67.64C336.308 67.64 335.001 67.6667 334.361 67.72V93ZM425.646 65.4C426.126 65.4 426.499 65.64 426.766 66.12C427.032 66.5467 427.166 67.1333 427.166 67.88C427.166 68.9467 426.926 70.0133 426.446 71.08C425.966 72.1467 425.379 72.84 424.686 73.16C421.912 72.1467 419.459 71.32 417.326 70.68C415.192 69.9867 413.059 69.4533 410.926 69.08L411.006 110.52C411.006 114.68 411.432 117.853 412.286 120.04C410.792 121.373 409.086 122.04 407.166 122.04C405.672 122.04 404.446 121.613 403.486 120.76C402.579 119.907 402.126 118.787 402.126 117.4L402.046 69.08C399.912 69.4533 397.752 69.9867 395.566 70.68C393.432 71.32 391.032 72.1467 388.366 73.16C387.672 72.84 387.086 72.1467 386.606 71.08C386.126 70.0133 385.886 68.9467 385.886 67.88C385.886 67.1333 386.019 66.5467 386.286 66.12C386.552 65.64 386.926 65.4 387.406 65.4H425.646ZM496.603 64.44C498.31 64.44 499.563 64.7333 500.363 65.32C501.216 65.9067 501.643 66.8133 501.643 68.04C501.643 68.84 501.323 70.4667 500.683 72.92L487.323 120.76C485.35 121.613 483.376 122.04 481.403 122.04C480.016 122.04 478.843 121.827 477.883 121.4C476.976 120.973 476.416 120.333 476.203 119.48L466.203 81.48L455.643 120.76C453.51 121.613 451.59 122.04 449.883 122.04C446.523 122.04 444.656 121.187 444.283 119.48L431.803 70.68C431.59 69.9333 431.296 69.16 430.923 68.36C430.55 67.5067 430.096 66.8133 429.563 66.28C430.683 64.9467 432.443 64.28 434.843 64.28C438.15 64.28 440.043 65.4267 440.523 67.72L451.083 114.68L461.083 76.6C461.243 75.6933 461.323 74.9467 461.323 74.36C461.323 73.24 461.136 72.2533 460.763 71.4C461.616 70.9733 462.63 70.6533 463.803 70.44C464.976 70.1733 466.043 70.04 467.003 70.04C469.563 70.04 471.056 70.7867 471.483 72.28L482.683 114.68L492.043 70.76C492.096 70.4933 492.176 70.04 492.283 69.4C492.39 68.76 492.443 68.1733 492.443 67.64C492.443 66.6267 492.256 65.8533 491.883 65.32C492.043 65.2667 492.523 65.1067 493.323 64.84C494.176 64.5733 495.27 64.44 496.603 64.44ZM529.914 122.04C522.66 122.04 517.167 119.64 513.434 114.84C509.7 109.987 507.834 102.76 507.834 93.16C507.834 83.56 509.7 76.36 513.434 71.56C517.167 66.7067 522.66 64.28 529.914 64.28C537.167 64.28 542.66 66.7067 546.394 71.56C550.18 76.36 552.074 83.56 552.074 93.16C552.074 102.76 550.18 109.987 546.394 114.84C542.66 119.64 537.167 122.04 529.914 122.04ZM529.914 118.68C534.127 118.68 537.247 116.653 539.274 112.6C541.3 108.493 542.314 102.013 542.314 93.16C542.314 84.36 541.3 77.9067 539.274 73.8C537.247 69.6933 534.127 67.64 529.914 67.64C525.754 67.64 522.66 69.6933 520.634 73.8C518.607 77.9067 517.594 84.36 517.594 93.16C517.594 101.96 518.607 108.413 520.634 112.52C522.66 116.627 525.754 118.68 529.914 118.68Z" fill="#132170"/>
<path d="M184.72 184.6C185.307 186.36 185.947 187.613 186.64 188.36C185.733 189.373 184.48 189.88 182.88 189.88C181.867 189.88 180.987 189.64 180.24 189.16C179.493 188.733 179.013 188.093 178.8 187.24L173.92 171.4H152.96L148.96 184.76C148.64 185.933 148.48 186.813 148.48 187.4C148.48 188.253 148.64 188.867 148.96 189.24C147.84 189.667 146.667 189.88 145.44 189.88C142.987 189.88 141.76 188.893 141.76 186.92C141.76 186.227 142.027 185.027 142.56 183.32L159.52 133.56C161.28 132.867 163.04 132.52 164.8 132.52C166.88 132.52 168.16 133.32 168.64 134.92L184.72 184.6ZM172.8 167.56L163.36 136.84L154.16 167.56H172.8ZM247.744 179.88C247.744 183.72 248.064 186.573 248.704 188.44C247.584 189.4 246.33 189.88 244.944 189.88C243.93 189.88 243.104 189.56 242.464 188.92C241.824 188.28 241.504 187.427 241.504 186.36L241.344 141.32L223.824 180.28C222.544 180.76 221.37 181 220.304 181C219.344 181 218.49 180.813 217.744 180.44C211.717 169.027 205.424 156.067 198.864 141.56L198.944 179.88C198.944 183.88 199.29 186.893 199.984 188.92C199.237 189.56 198.357 189.88 197.344 189.88C195.797 189.88 195.024 188.893 195.024 186.92L194.944 142.68C194.944 138.893 194.784 135.933 194.464 133.8C195.104 133.16 196.517 132.84 198.704 132.84C200.144 132.84 201.264 133.267 202.064 134.12L208.704 148.12L221.584 174.84C222.65 172.493 226.357 164.093 232.704 149.64C234.304 145.853 235.69 142.627 236.864 139.96C238.037 137.293 238.997 135.133 239.744 133.48C240.864 133.053 242.17 132.84 243.664 132.84C244.677 132.84 245.557 133.027 246.304 133.4C247.104 133.773 247.53 134.227 247.584 134.76L247.744 179.88ZM277.313 190.04C271.393 190.04 266.913 188.947 263.873 186.76C260.886 184.52 259.393 181.667 259.393 178.2C259.393 175.107 260.886 173.56 263.873 173.56C264.459 173.56 264.939 173.587 265.312 173.64C265.046 174.44 264.966 175.56 265.073 177C265.233 180.093 266.433 182.547 268.673 184.36C270.966 186.173 274.059 187.08 277.953 187.08C281.473 187.08 284.273 186.253 286.353 184.6C288.486 182.947 289.553 180.52 289.553 177.32C289.553 175.24 289.073 173.453 288.113 171.96C287.206 170.467 285.873 169.08 284.113 167.8C282.406 166.52 279.953 165 276.753 163.24C273.126 161.213 270.273 159.453 268.193 157.96C266.113 156.413 264.459 154.653 263.233 152.68C262.006 150.707 261.393 148.36 261.393 145.64C261.393 141.267 262.993 137.987 266.193 135.8C269.393 133.613 273.446 132.52 278.353 132.52C283.153 132.52 286.993 133.4 289.873 135.16C292.806 136.92 294.273 139.347 294.273 142.44C294.273 144.68 293.206 145.907 291.073 146.12C290.646 146.227 290.299 146.28 290.033 146.28C289.713 146.28 289.233 146.227 288.593 146.12C288.753 145.533 288.833 145 288.833 144.52C288.833 143.88 288.753 143.293 288.593 142.76C288.379 140.467 287.286 138.68 285.313 137.4C283.339 136.12 280.806 135.48 277.713 135.48C274.886 135.48 272.459 136.12 270.433 137.4C268.459 138.68 267.473 140.76 267.473 143.64C267.473 145.667 267.979 147.453 268.993 149C270.006 150.493 271.366 151.827 273.073 153C274.779 154.173 277.206 155.64 280.353 157.4C283.713 159.213 286.486 160.92 288.673 162.52C290.859 164.12 292.619 165.987 293.953 168.12C295.286 170.253 295.953 172.733 295.953 175.56C295.953 178.12 295.313 180.493 294.033 182.68C292.806 184.867 290.806 186.653 288.033 188.04C285.259 189.373 281.686 190.04 277.313 190.04ZM339.528 133.56C340.274 133.56 340.648 134.147 340.648 135.32C340.648 136.12 340.461 136.92 340.087 137.72C339.768 138.52 339.341 139.027 338.808 139.24L336.728 138.76C331.181 137.533 326.941 136.813 324.008 136.6L324.088 179.88C324.088 183.773 324.434 186.627 325.128 188.44C324.008 189.4 322.754 189.88 321.368 189.88C320.301 189.88 319.421 189.56 318.728 188.92C318.034 188.28 317.688 187.427 317.688 186.36L317.608 136.6C315.688 136.76 313.768 137.027 311.848 137.4C309.981 137.72 307.581 138.2 304.648 138.84L302.888 139.24C302.354 139.027 301.901 138.52 301.528 137.72C301.208 136.92 301.048 136.12 301.048 135.32C301.048 134.147 301.421 133.56 302.168 133.56H339.528ZM379.073 183.24C379.5 183.453 379.82 183.88 380.033 184.52C380.3 185.107 380.433 185.747 380.433 186.44C380.433 187.187 380.3 187.8 380.033 188.28C379.766 188.76 379.366 189 378.833 189H353.393C352.273 189 351.366 188.68 350.673 188.04C350.033 187.4 349.713 186.52 349.713 185.4L349.633 143.48C349.633 140.013 349.286 137.267 348.593 135.24C349.34 134.6 350.086 134.173 350.833 133.96C351.633 133.693 352.726 133.56 354.113 133.56H378.273C378.646 133.56 378.94 133.747 379.153 134.12C379.366 134.44 379.473 134.867 379.473 135.4C379.473 136.147 379.286 136.92 378.913 137.72C378.593 138.52 378.166 139.027 377.633 139.24C370.006 137.907 362.806 137.213 356.033 137.16V157.96H375.713C375.873 158.6 375.953 159.24 375.953 159.88C375.953 160.52 375.873 161.16 375.713 161.8H356.113V185.48C362.78 185.427 370.433 184.68 379.073 183.24ZM431.162 183.72C431.482 184.36 431.642 185.053 431.642 185.8C431.642 187.08 431.109 188.093 430.042 188.84C428.975 189.533 427.909 189.88 426.842 189.88C424.869 189.88 423.295 189.267 422.122 188.04C421.002 186.76 419.882 184.733 418.762 181.96L415.082 172.52C414.335 170.707 413.642 169.293 413.002 168.28C412.415 167.267 411.482 166.413 410.202 165.72C408.922 164.973 407.189 164.6 405.002 164.6L399.082 164.52V180.12C399.082 181.4 399.162 182.867 399.322 184.52C399.482 186.173 399.749 187.48 400.122 188.44C399.749 188.813 399.242 189.133 398.602 189.4C397.962 189.72 397.242 189.88 396.442 189.88C395.322 189.88 394.415 189.56 393.722 188.92C393.029 188.28 392.655 187.427 392.602 186.36V142.84C392.602 141.56 392.522 140.093 392.362 138.44C392.202 136.733 391.935 135.347 391.562 134.28C393.802 133.107 397.722 132.52 403.322 132.52C410.949 132.52 416.575 133.72 420.202 136.12C423.829 138.467 425.642 142.307 425.642 147.64C425.642 151.48 424.522 154.733 422.282 157.4C420.095 160.067 417.135 161.88 413.402 162.84C415.269 163.373 416.762 164.333 417.882 165.72C419.055 167.053 420.122 168.787 421.082 170.92L425.082 180.36C425.722 181.907 426.335 183.027 426.922 183.72C427.509 184.36 428.149 184.707 428.842 184.76C429.802 184.76 430.575 184.413 431.162 183.72ZM405.322 161.72C409.215 161.613 412.389 160.333 414.842 157.88C417.349 155.427 418.602 152.2 418.602 148.2C418.602 143.827 417.402 140.6 415.002 138.52C412.655 136.44 408.869 135.4 403.642 135.4C401.562 135.4 400.042 135.48 399.082 135.64V161.64L405.322 161.72ZM444.093 189C442.919 189 442.013 188.68 441.373 188.04C440.733 187.4 440.413 186.547 440.413 185.48L440.253 142.84C440.253 140.6 440.199 138.707 440.093 137.16C440.039 135.613 439.826 134.307 439.453 133.24C443.506 132.867 449.053 132.68 456.093 132.68C463.613 132.68 469.346 135.053 473.293 139.8C477.293 144.493 479.293 151.533 479.293 160.92C479.293 179.64 471.666 189 456.413 189H444.093ZM456.093 186.04C461.479 186.04 465.506 184.093 468.173 180.2C470.893 176.307 472.253 170.013 472.253 161.32C472.253 152.573 470.893 146.12 468.173 141.96C465.453 137.8 461.426 135.72 456.093 135.72H446.653L446.733 186.04H456.093ZM528.783 184.6C529.369 186.36 530.009 187.613 530.703 188.36C529.796 189.373 528.543 189.88 526.943 189.88C525.929 189.88 525.049 189.64 524.303 189.16C523.556 188.733 523.076 188.093 522.863 187.24L517.983 171.4H497.023L493.023 184.76C492.703 185.933 492.543 186.813 492.543 187.4C492.543 188.253 492.703 188.867 493.023 189.24C491.903 189.667 490.729 189.88 489.503 189.88C487.049 189.88 485.823 188.893 485.823 186.92C485.823 186.227 486.089 185.027 486.623 183.32L503.583 133.56C505.343 132.867 507.103 132.52 508.863 132.52C510.943 132.52 512.223 133.32 512.703 134.92L528.783 184.6ZM516.863 167.56L507.423 136.84L498.223 167.56H516.863ZM591.806 179.88C591.806 183.72 592.126 186.573 592.766 188.44C591.646 189.4 590.393 189.88 589.006 189.88C587.993 189.88 587.166 189.56 586.526 188.92C585.886 188.28 585.566 187.427 585.566 186.36L585.406 141.32L567.886 180.28C566.606 180.76 565.433 181 564.366 181C563.406 181 562.553 180.813 561.806 180.44C555.78 169.027 549.486 156.067 542.926 141.56L543.006 179.88C543.006 183.88 543.353 186.893 544.046 188.92C543.3 189.56 542.42 189.88 541.406 189.88C539.86 189.88 539.086 188.893 539.086 186.92L539.006 142.68C539.006 138.893 538.846 135.933 538.526 133.8C539.166 133.16 540.58 132.84 542.766 132.84C544.206 132.84 545.326 133.267 546.126 134.12L552.766 148.12L565.646 174.84C566.713 172.493 570.42 164.093 576.766 149.64C578.366 145.853 579.753 142.627 580.926 139.96C582.1 137.293 583.06 135.133 583.806 133.48C584.926 133.053 586.233 132.84 587.726 132.84C588.74 132.84 589.62 133.027 590.366 133.4C591.166 133.773 591.593 134.227 591.646 134.76L591.806 179.88Z" fill="#132170"/>
</svg>
