<svg width="145" height="171" viewBox="0 0 145 171" fill="none" xmlns="http://www.w3.org/2000/svg">
<path d="M107.236 58.1223C113.475 58.1223 119.713 58.1455 125.949 58.1068C127.609 58.1068 128.916 58.5819 130.313 59.5786C132.391 61.0634 134.808 62.073 137.07 63.3098C138.842 64.2782 140.518 65.4143 142.235 66.4498C144.992 68.1023 144.879 72.0866 143.288 74.0361C139.183 79.0636 135.175 84.1685 131.124 89.2399L99.8795 128.329C89.4717 141.362 79.0656 154.395 68.6612 167.428C67.9888 168.324 67.1498 169.083 66.1901 169.661C64.3594 170.694 62.5183 170.753 60.6927 169.633C57.2997 167.546 54.4464 164.802 51.5622 162.096C51.157 161.655 50.6749 161.293 50.1394 161.026C47.4178 159.87 46.5244 158.005 47.2603 155.142C50.2866 143.556 53.3172 131.973 56.3521 120.391C56.8401 118.527 56.8453 118.529 54.9809 118.529C44.0119 118.529 33.0326 118.506 22.0739 118.558C20.6082 118.594 19.1773 118.109 18.0354 117.189C13.199 113.422 8.99785 108.999 4.77344 104.578C4.51185 104.242 4.17122 103.976 3.78188 103.803C0.376013 102.559 -0.558723 99.2535 1.70583 96.3873C5.2279 91.9382 8.79386 87.5253 12.3392 83.0969L42.8086 45.0488C52.7482 32.6338 62.6861 20.2196 72.6222 7.80634C73.8273 6.29491 75.0323 4.78091 76.2373 3.26432C78.538 0.341317 80.7044 0.0495318 83.6119 2.3115C84.242 2.80211 85.0037 2.96995 85.7035 3.28497C89.1248 4.83427 92.2647 6.86643 95.4821 8.7669C97.5478 9.98052 98.3509 12.462 97.6873 15.008C94.5319 27.1372 91.3653 39.2622 88.1875 51.3829C87.6995 53.2523 87.2579 55.1347 86.6976 56.981C86.4007 57.9648 86.5917 58.2152 87.6349 58.2075C94.173 58.1662 100.711 58.1868 107.259 58.1868L107.236 58.1223Z" fill="#73BD9C"/>
<path d="M63.479 168.127C62.7035 168.04 61.9599 167.769 61.31 167.337C58.684 165.594 56.4246 163.407 54.08 161.334C53.8347 161.117 53.53 160.897 53.9638 160.515C56.5046 158.287 58.3276 155.446 60.4192 152.841C71.2126 139.4 81.9785 125.938 92.7168 112.454C103.562 98.8869 114.403 85.3193 125.239 71.7509C126.768 69.8367 128.301 67.925 129.838 66.016C130.432 65.2775 131.033 64.5467 131.196 63.5681C131.289 63.0103 131.542 62.8761 132.079 63.1756C134.971 64.7843 137.938 66.2613 140.701 68.0817C142.421 69.223 142.767 70.9221 141.476 72.5901C139.002 75.7843 136.451 78.919 133.928 82.0744C123.42 95.2142 112.92 108.35 102.426 121.483L71.2668 160.474C69.6814 162.454 68.0908 164.43 66.526 166.426C66.1625 166.904 65.7043 167.302 65.18 167.594C64.6557 167.887 64.0767 168.069 63.479 168.127Z" fill="white"/>
<path d="M77.6008 58.2204C75.8371 58.2204 74.0735 58.1868 72.3099 58.2359C71.3881 58.2591 71.1144 58.0603 71.3778 57.0636C74.9635 43.4539 78.526 29.8373 82.0653 16.2138C82.9432 12.857 83.8237 9.50023 84.6475 6.11244C84.8127 5.42042 85.0477 5.51079 85.5047 5.73802C88.5032 7.23282 91.409 8.9065 94.2066 10.75C95.6655 11.7157 95.7559 13.216 95.335 14.7911C92.1727 26.8739 89.0165 38.9558 85.8662 51.0368C85.324 53.1026 84.7327 55.1683 84.2395 57.265C84.0665 57.9958 83.754 58.2307 83.0181 58.2101C81.2106 58.1636 79.4031 58.1946 77.5956 58.1946L77.6008 58.2204Z" fill="white"/>
<path d="M7.44604 103.834H49.5352C52.892 103.834 56.2489 103.834 59.6057 103.806C60.4526 103.806 60.7263 103.93 60.4629 104.877C59.5075 108.307 58.6399 111.759 57.7723 115.206C57.5864 115.945 57.2559 116.218 56.4503 116.216C44.7583 116.19 33.0654 116.19 21.3716 116.216C20.8142 116.238 20.2681 116.054 19.8378 115.699C15.7348 112.297 11.8318 108.66 8.14838 104.808C7.89475 104.498 7.66021 104.173 7.44604 103.834Z" fill="white"/>
</svg>
