<svg width="468" height="285" viewBox="0 0 468 285" fill="none" xmlns="http://www.w3.org/2000/svg">
<path d="M148.109 0V165.626H194.344V75.3779H229.787L148.109 0Z" fill="black"/>
<path d="M282.526 0V90.2492H247.084L328.761 165.626V0H282.526Z" fill="black"/>
<path d="M56.2052 216.986V255.706L0 216.986V283.236H15.3881V244.517L71.5924 283.236V216.986H56.2052Z" fill="black"/>
<path d="M85.7651 283.236V216.986H148.109V229.143H101.853V243.058H148.109V255.216H101.853V271.079H148.109V283.236H85.7651Z" fill="black"/>
<path d="M260.21 283.236L229.343 216.986H247.336L269.757 268.57L292.284 216.986H309.67L278.801 283.236H260.21Z" fill="black"/>
<path d="M450.534 235.636C449.366 232.74 447.121 230.321 444.201 228.81C441.378 227.423 437.457 226.73 432.437 226.73C426.732 226.73 422.375 227.379 419.368 228.678C416.35 229.97 414.835 231.862 414.835 234.333C414.759 235.348 414.975 236.364 415.462 237.277C415.949 238.19 416.688 238.968 417.606 239.532C419.45 240.645 422.818 241.541 427.71 242.222L442.49 244.361C451.265 245.654 457.699 247.926 461.792 251.176C465.881 254.428 467.926 258.898 467.93 264.588C467.93 271.023 464.964 276.017 459.031 279.568C453.1 283.123 444.636 284.9 433.642 284.9C425.661 284.9 419.042 284.035 413.786 282.305C408.522 280.575 404.498 277.946 401.713 274.417C398.932 270.889 397.274 266.406 396.74 260.966H412.93C413.6 265.301 415.577 268.473 418.862 270.481C422.148 272.487 427.075 273.491 433.644 273.494C439.535 273.494 443.984 272.762 446.961 271.309C449.947 269.863 451.441 267.705 451.441 264.864C451.481 263.808 451.23 262.761 450.711 261.82C450.192 260.878 449.422 260.075 448.473 259.483C446.497 258.182 443.355 257.25 439.071 256.699L426.999 255.121C417.215 253.886 410.06 251.643 405.536 248.392C401.014 245.149 398.752 240.587 398.748 234.704C398.679 230.934 400.112 227.271 402.776 224.41C405.453 221.501 409.356 219.258 414.486 217.68C420.428 215.993 426.624 215.195 432.839 215.314C442.624 215.314 450.198 216.816 455.56 219.818C460.917 222.814 464.436 227.528 466.117 233.963L450.534 235.636Z" fill="black"/>
<path d="M391.013 250.112C391.013 257.098 389.355 263.207 386.038 268.437C382.66 273.718 377.655 277.95 371.66 280.595C365.398 283.464 357.941 284.899 349.29 284.9C340.977 284.9 333.723 283.525 327.526 280.774C321.525 278.192 316.486 274.029 313.045 268.808C309.594 263.58 307.866 257.348 307.864 250.112C307.864 243.115 309.526 237.007 312.85 231.786C316.227 226.505 321.232 222.273 327.227 219.628C333.491 216.749 340.948 215.311 349.598 215.314C357.9 215.314 365.154 216.692 371.362 219.448C377.361 222.033 382.398 226.197 385.842 231.415C389.293 236.644 391.017 242.876 391.013 250.112ZM374.327 250.112C374.327 242.935 372.147 237.368 367.787 233.411C363.43 229.447 357.298 227.467 349.392 227.471C341.554 227.471 335.453 229.467 331.089 233.458C326.733 237.441 324.557 242.993 324.561 250.112C324.561 257.288 326.737 262.855 331.089 266.812C335.446 270.766 341.582 272.746 349.495 272.752C357.333 272.752 363.431 270.756 367.787 266.764C372.144 262.772 374.324 257.221 374.327 250.112Z" fill="black"/>
<path d="M213.297 283.237L197.61 258.458H176.598V283.237H161.118V216.987H196.405C216.449 216.987 226.47 223.884 226.47 237.679C226.47 242.127 225.347 245.837 223.102 248.81C220.857 251.784 217.42 254.104 212.791 255.768L230.888 283.237H213.297ZM195.2 247.05C200.494 247.05 204.397 246.29 206.911 244.77C209.424 243.258 210.68 240.863 210.68 237.583C210.68 234.305 209.492 231.954 207.117 230.531C204.737 229.105 200.833 228.396 195.406 228.402H176.598V247.05H195.2Z" fill="black"/>
</svg>
