<svg width="400" height="56" viewBox="0 0 400 56" fill="none" xmlns="http://www.w3.org/2000/svg">
<path d="M20.1975 53.86C14.263 53.86 9.40059 52.4637 5.61043 49.6709C1.87014 46.8283 0 42.7888 0 37.5525C0 36.4552 0.124676 35.1088 0.374029 33.5131C1.02234 29.9224 1.94495 25.6085 3.14184 20.5716C6.53304 6.8572 15.2853 0 29.3987 0C33.2387 0 36.6797 0.648317 39.7219 1.94495C42.764 3.19171 45.1576 5.0868 46.9032 7.63019C48.6485 10.1237 49.5213 13.1159 49.5213 16.6069C49.5213 17.6542 49.3968 18.9757 49.1475 20.5716C48.3992 25.0101 47.5016 29.3237 46.4544 33.5131C44.7088 40.3453 41.6917 45.4571 37.4029 48.848C33.1139 52.1893 27.3789 53.86 20.1975 53.86ZM21.2448 43.088C24.0376 43.088 26.4064 42.2653 28.3515 40.6195C30.3461 38.9739 31.7675 36.4552 32.6152 33.064C33.7624 28.3763 34.6349 24.2869 35.2336 20.796C35.4331 19.7487 35.5328 18.6765 35.5328 17.5793C35.5328 13.0411 33.1637 10.772 28.4261 10.772C25.6334 10.772 23.2396 11.5949 21.2448 13.2406C19.2999 14.8863 17.9035 17.4048 17.0557 20.796C16.158 24.1373 15.2604 28.2267 14.3627 33.064C14.1632 34.0616 14.0635 35.1088 14.0635 36.2059C14.0635 40.7941 16.4573 43.088 21.2448 43.088Z" fill="#FF0420"/>
<path d="M57.1122 53.112C56.5634 53.112 56.1397 52.9376 55.8405 52.5885C55.5912 52.1893 55.5162 51.7405 55.616 51.2419L65.9392 2.61819C66.0389 2.06961 66.3133 1.62078 66.7621 1.27169C67.2109 0.922596 67.6848 0.748047 68.1834 0.748047H88.0816C93.6173 0.748047 98.0557 1.89507 101.397 4.18911C104.788 6.48316 106.484 9.79954 106.484 14.1383C106.484 15.385 106.334 16.6817 106.035 18.0282C104.788 23.7633 102.27 28.0021 98.4797 30.7451C94.7394 33.488 89.6026 34.8595 83.0696 34.8595H72.9709L69.5298 51.2419C69.4301 51.7904 69.1557 52.2392 68.7069 52.5885C68.2581 52.9376 67.7845 53.112 67.2856 53.112H57.1122ZM83.5933 24.5363C85.688 24.5363 87.5082 23.9627 89.0541 22.8157C90.6501 21.6687 91.6973 20.023 92.196 17.8786C92.3456 17.0308 92.4205 16.2827 92.4205 15.6344C92.4205 14.1882 91.9965 13.091 91.1488 12.3429C90.301 11.545 88.8546 11.146 86.8101 11.146H77.8333L74.9906 24.5363H83.5933Z" fill="#FF0420"/>
<path d="M123.338 53.112C122.79 53.112 122.366 52.9376 122.067 52.5885C121.768 52.1893 121.668 51.7405 121.768 51.2419L130.071 12.4926H116.756C116.207 12.4926 115.783 12.318 115.484 11.9689C115.234 11.5699 115.16 11.1211 115.26 10.6224L116.98 2.61819C117.08 2.06961 117.354 1.62078 117.803 1.27169C118.252 0.922596 118.725 0.748047 119.224 0.748047H159.47C160.018 0.748047 160.442 0.922596 160.741 1.27169C160.941 1.57091 161.041 1.87013 161.041 2.16936C161.041 2.31897 161.016 2.46858 160.966 2.61819L159.245 10.6224C159.145 11.171 158.871 11.6198 158.422 11.9689C158.023 12.318 157.55 12.4926 157.001 12.4926H143.76L135.457 51.2419C135.357 51.7904 135.083 52.2392 134.634 52.5885C134.185 52.9376 133.712 53.112 133.213 53.112H123.338Z" fill="#FF0420"/>
<path d="M162.949 53.112C162.4 53.112 161.976 52.9376 161.677 52.5885C161.378 52.1893 161.278 51.7405 161.378 51.2419L171.776 2.61819C171.876 2.06961 172.15 1.62078 172.599 1.27169C173.048 0.922596 173.521 0.748047 174.02 0.748047H184.119C184.667 0.748047 185.091 0.922596 185.391 1.27169C185.59 1.57091 185.69 1.87013 185.69 2.16936C185.69 2.31897 185.665 2.46858 185.615 2.61819L175.292 51.2419C175.192 51.7904 174.918 52.2392 174.469 52.5885C174.02 52.9376 173.546 53.112 173.048 53.112H162.949Z" fill="#FF0420"/>
<path d="M191.433 53.112C190.884 53.112 190.46 52.9376 190.161 52.5885C189.862 52.2392 189.762 51.7904 189.862 51.2419L200.185 2.61819C200.285 2.06961 200.559 1.62078 201.007 1.27169C201.457 0.922596 201.955 0.748047 202.504 0.748047H210.583C211.78 0.748047 212.553 1.29662 212.902 2.39378L221.055 25.9576L239.233 2.39378C239.483 1.99481 239.832 1.62078 240.281 1.27169C240.779 0.922596 241.378 0.748047 242.076 0.748047H250.23C250.778 0.748047 251.202 0.922596 251.501 1.27169C251.701 1.57091 251.801 1.87013 251.801 2.16936C251.801 2.31897 251.776 2.46858 251.726 2.61819L241.403 51.2419C241.303 51.7904 241.029 52.2392 240.58 52.5885C240.131 52.9376 239.657 53.112 239.158 53.112H230.107C229.558 53.112 229.135 52.9376 228.835 52.5885C228.586 52.1893 228.511 51.7405 228.611 51.2419L234.446 23.6386L223.001 38.8243C222.502 39.3728 222.028 39.7965 221.579 40.0957C221.13 40.3952 220.607 40.5448 220.008 40.5448H216.118C215.071 40.5448 214.348 39.9712 213.949 38.8243L208.638 22.9654L202.653 51.2419C202.554 51.7904 202.279 52.2392 201.83 52.5885C201.382 52.9376 200.908 53.112 200.409 53.112H191.433Z" fill="#FF0420"/>
<path d="M257.462 53.112C256.914 53.112 256.49 52.9376 256.191 52.5885C255.891 52.1893 255.792 51.7405 255.891 51.2419L266.289 2.61819C266.389 2.06961 266.663 1.62078 267.112 1.27169C267.56 0.922596 268.035 0.748047 268.533 0.748047H278.632C279.181 0.748047 279.605 0.922596 279.904 1.27169C280.104 1.57091 280.203 1.87013 280.203 2.16936C280.203 2.31897 280.179 2.46858 280.128 2.61819L269.805 51.2419C269.707 51.7904 269.432 52.2392 268.981 52.5885C268.533 52.9376 268.059 53.112 267.56 53.112H257.462Z" fill="#FF0420"/>
<path d="M304.424 53.86C300.035 53.86 296.269 53.2616 293.128 52.0648C290.035 50.868 287.691 49.272 286.096 47.2773C284.549 45.2824 283.776 43.0632 283.776 40.6195C283.776 40.2205 283.827 39.6221 283.925 38.8243C284.027 38.3752 284.227 38.0013 284.525 37.7021C284.875 37.4029 285.272 37.2533 285.723 37.2533H295.296C295.896 37.2533 296.344 37.3531 296.643 37.5525C296.992 37.752 297.341 38.1011 297.691 38.5997C298.04 39.8963 298.837 40.9685 300.085 41.8163C301.381 42.6643 303.152 43.088 305.395 43.088C308.237 43.088 310.533 42.6392 312.277 41.7416C314.024 40.844 315.072 39.6221 315.419 38.076C315.469 37.8765 315.493 37.5773 315.493 37.1784C315.493 35.9317 314.723 34.9592 313.176 34.2611C311.629 33.5131 308.787 32.6403 304.648 31.6429C299.811 30.5955 296.144 29.0245 293.651 26.9301C291.157 24.7856 289.912 21.9929 289.912 18.5518C289.912 17.3549 290.061 16.1331 290.36 14.8863C291.357 10.2484 293.827 6.60784 297.765 3.96469C301.755 1.32157 306.891 0 313.176 0C316.965 0 320.333 0.673251 323.275 2.01975C326.216 3.36627 328.485 5.0868 330.083 7.18136C331.728 9.22603 332.549 11.2707 332.549 13.3154C332.549 13.9139 332.525 14.3378 332.475 14.5871C332.376 15.0359 332.152 15.41 331.803 15.7092C331.504 16.0084 331.128 16.158 330.68 16.158H320.656C319.56 16.158 318.811 15.7341 318.413 14.8863C318.363 13.7393 317.763 12.7669 316.616 11.9689C315.469 11.171 313.973 10.772 312.128 10.772C309.933 10.772 308.115 11.171 306.667 11.9689C305.272 12.7669 304.397 13.9388 304.051 15.4848C304 15.7341 303.973 16.0583 303.973 16.4573C303.973 17.6541 304.672 18.6515 306.069 19.4495C307.515 20.1975 310.035 20.9705 313.624 21.7685C319.211 22.8656 323.275 24.4365 325.819 26.4812C328.411 28.5259 329.707 31.2437 329.707 34.6349C329.707 35.7821 329.557 37.0288 329.259 38.3752C328.163 43.4621 325.493 47.3272 321.253 49.9701C317.067 52.5635 311.456 53.86 304.424 53.86Z" fill="#FF0420"/>
<path d="M339.632 53.112C339.083 53.112 338.659 52.9376 338.36 52.5885C338.062 52.2392 337.96 51.7904 338.062 51.2419L348.384 2.61819C348.483 2.06961 348.758 1.62078 349.208 1.27169C349.656 0.922596 350.155 0.748047 350.704 0.748047H358.782C359.979 0.748047 360.752 1.29662 361.101 2.39378L369.256 25.9576L387.432 2.39378C387.683 1.99481 388.032 1.62078 388.48 1.27169C388.979 0.922596 389.576 0.748047 390.275 0.748047H398.43C398.979 0.748047 399.403 0.922596 399.702 1.27169C399.902 1.57091 400 1.87013 400 2.16936C400 2.31897 399.976 2.46858 399.926 2.61819L389.603 51.2419C389.502 51.7904 389.227 52.2392 388.779 52.5885C388.331 52.9376 387.856 53.112 387.358 53.112H378.307C377.758 53.112 377.334 52.9376 377.035 52.5885C376.784 52.1893 376.71 51.7405 376.811 51.2419L382.646 23.6386L371.2 38.8243C370.702 39.3728 370.227 39.7965 369.779 40.0957C369.331 40.3952 368.806 40.5448 368.208 40.5448H364.318C363.27 40.5448 362.547 39.9712 362.15 38.8243L356.838 22.9654L350.854 51.2419C350.752 51.7904 350.478 52.2392 350.03 52.5885C349.582 52.9376 349.107 53.112 348.608 53.112H339.632Z" fill="#FF0420"/>
</svg>
