<svg width="549" height="108" viewBox="0 0 549 108" fill="none" xmlns="http://www.w3.org/2000/svg">
<path fill-rule="evenodd" clip-rule="evenodd" d="M189.431 53.9108L135.716 0.0997467V39.5088L82.3828 78.9656L135.716 79.0028V107.722L189.431 53.9108Z" fill="#4E529A"/>
<path fill-rule="evenodd" clip-rule="evenodd" d="M0.078125 53.8912L53.7927 107.702V68.7103L106.736 29.2273L53.7927 29.1909V0.0802612L0.078125 53.8912Z" fill="#8C8DFC"/>
<path d="M272.118 85.5986H230.905V73.73L254.498 47.3549H231.513V35.6893H271.713V46.9495L247.41 73.8313H272.118V85.5986Z" fill="black" fill-opacity="0.9"/>
<path d="M328.362 35.6893L308.414 56.6879L328.767 85.5986H312.262L299.098 66.5276L293.529 72.4113V85.5986H280.061V12.1547H293.529V54.2532L310.743 35.6893H328.362Z" fill="black" fill-opacity="0.9"/>
<path d="M386.938 30.8199L374.381 34.675C373.909 32.105 372.625 29.772 370.534 27.6754C368.443 25.5788 365.368 24.5309 361.318 24.5309C358.013 24.5309 355.313 25.4438 353.217 27.2696C351.126 29.0281 350.08 31.1584 350.08 33.6604C350.08 38.0563 352.679 40.7614 357.876 41.7757L367.9 43.7032C374.245 44.9206 379.173 47.4566 382.685 51.3113C386.196 55.1661 387.952 59.697 387.952 64.9045C387.952 70.8558 385.588 76.0629 380.862 80.5265C376.203 84.9224 369.925 87.12 362.028 87.12C357.505 87.12 353.42 86.4438 349.776 85.0915C346.13 83.7387 343.193 81.9466 340.966 79.715C338.738 77.4157 336.983 75.0146 335.7 72.5126C334.485 69.9425 333.742 67.3051 333.472 64.6L346.434 61.1511C346.771 65.0058 348.258 68.2181 350.888 70.7881C353.588 73.3578 357.338 74.6429 362.129 74.6429C365.774 74.6429 368.61 73.8313 370.635 72.2082C372.727 70.5851 373.773 68.4548 373.773 65.8174C373.773 63.7208 372.996 61.929 371.443 60.4409C369.96 58.8854 367.834 57.8375 365.067 57.2963L355.039 55.2674C349.233 54.0501 344.645 51.6494 341.269 48.0651C337.894 44.4807 336.206 40.0175 336.206 34.675C336.206 28.3179 338.637 22.9754 343.497 18.6472C348.426 14.319 354.333 12.1547 361.216 12.1547C365.337 12.1547 369.016 12.7295 372.255 13.8792C375.493 15.0288 378.096 16.5843 380.051 18.5455C382.01 20.4394 383.527 22.4006 384.608 24.4291C385.689 26.458 386.466 28.5883 386.938 30.8199Z" fill="black" fill-opacity="0.9"/>
<path d="M410.638 105.278H396.361L408.106 79.3092L386.942 35.6893H402.03L415.297 64.9045L427.549 35.6893H441.927L410.638 105.278Z" fill="black" fill-opacity="0.9"/>
<path d="M460.516 56.8906V85.5986H447.047V35.6893H460.11V41.8774C461.527 39.4427 463.552 37.5828 466.186 36.2978C468.82 35.0131 471.586 34.3706 474.489 34.3706C480.361 34.3706 484.817 36.2305 487.857 39.9498C490.963 43.6019 492.516 48.3355 492.516 54.1518V85.5986H479.047V56.4848C479.047 53.5093 478.27 51.1083 476.717 49.2824C475.23 47.4566 472.936 46.5437 469.83 46.5437C466.997 46.5437 464.734 47.5243 463.049 49.4855C461.359 51.4463 460.516 53.9151 460.516 56.8906Z" fill="black" fill-opacity="0.9"/>
<path d="M525.522 46.645C521.944 46.645 518.94 47.8961 516.513 50.3984C514.082 52.9004 512.864 56.3157 512.864 60.644C512.864 64.9722 514.082 68.4211 516.513 70.9908C519.01 73.4932 522.046 74.7442 525.624 74.7442C528.796 74.7442 531.328 73.9327 533.221 72.3095C535.109 70.6191 536.393 68.6238 537.068 66.3245L548.914 70.281C547.701 74.8796 545.067 78.8357 541.017 82.1497C536.967 85.4632 531.836 87.12 525.624 87.12C518.198 87.12 511.955 84.618 506.891 79.6136C501.896 74.5415 499.399 68.2181 499.399 60.644C499.399 53.0018 501.861 46.6787 506.789 41.6743C511.788 36.6699 517.929 34.1675 525.218 34.1675C531.566 34.1675 536.764 35.8247 540.814 39.1383C544.864 42.3845 547.463 46.3406 548.61 51.0069L536.561 55.0647C534.942 49.4515 531.262 46.645 525.522 46.645Z" fill="black" fill-opacity="0.9"/>
</svg>
